# xmcd
#
# Track frame offsets:
#	150
#	17494
#	32712
#	46895
#	65518
#	81374
#	94615
#	112448
#	130708
#	144474
#	159650
#	172524
#	188619
#	202489
#	214013
#	231031
#	244922
#	257754
#	275006
#	286315
#
# Disc length: 3978 seconds
#
# Revision: 2
# Processed by: cddbd v1.5.2PL0 Copyright (c) Steve Scherf et al.
# Submitted via: EasyCDDAExtractor 15.3.0.1
#
DISCID=220f8814
DTITLE=Yuri - La Mas Completa Coleccion - CD 1
DYEAR=2015
DGENRE=Latin
TTITLE0=Maldita Primavera
TTITLE1=Tiempos Mejores
TTITLE2=Dame Un Beso
TTITLE3=Karma Kamaleon
TTITLE4=Te Estoy Queriendo Tanto
TTITLE5=Necesito De Ti
TTITLE6=Este Amor No Se Toca
TTITLE7=Esperanzas
TTITLE8=Quiero Ser
TTITLE9=Yo Te Amo, Te Amo
TTITLE10=Mi Timidez
TTITLE11=Dejala
TTITLE12=Regresaras
TTITLE13=Nos Pertenecemos (We Belong Together)
TTITLE14=Soy Feliz
TTITLE15=Y Ahora Juntos (Featuring Oscar Athie)
TTITLE16=El Amor Es Un Boomerang
TTITLE17=Perdona Amor
TTITLE18=Soy Un Garabato
TTITLE19=Ease On Down The Road
EXTD=
EXTT0=
EXTT1=
EXTT2=
EXTT3=
EXTT4=
EXTT5=
EXTT6=
EXTT7=
EXTT8=
EXTT9=
EXTT10=
EXTT11=
EXTT12=
EXTT13=
EXTT14=
EXTT15=
EXTT16=
EXTT17=
EXTT18=
EXTT19=
PLAYORDER=
